<?xml version="1.0" ?><svg data-name="Layer 2" id="Layer_2" viewBox="0 0 250 250" xmlns="http://www.w3.org/2000/svg"><title/><path d="M25.4,81.12l53.89,36.33a3.93,3.93,0,0,0,2.23.69,4,4,0,0,0,2.24-7.32L29.87,74.48a4,4,0,0,0-4.47,6.64Z"/><path d="M106.43,90A4,4,0,0,0,109.92,92a4.06,4.06,0,0,0,2-.51,4,4,0,0,0,1.54-5.45L81.66,29.33a4,4,0,0,0-7,3.91Z"/><path d="M232.9,134.79A14.66,14.66,0,0,0,220.84,129c-5.91,0-10.45,1.83-13.51,5.45-7,8.23-4.3,23.78-1.49,40.23s6,35.31-1.5,44.24c-3.51,4.16-9.28,6.19-17.64,6.2-6.84,0-15.52-1-17.91-6.1-3.61-7.67,6.55-22.67,10.49-27.45a17.77,17.77,0,0,0,4.23-6.3,19.87,19.87,0,0,0,2.41-22.93L110.21,27.1A20,20,0,0,0,83,19.42a4,4,0,0,0-1.53,5.45l77.12,137.77a17.61,17.61,0,0,0-6.79,6.1L21,80.54a4,4,0,0,0-3-.61,4,4,0,0,0-2.55,1.69,20,20,0,0,0,5.4,27.76L149.33,196A19.88,19.88,0,0,0,164.85,199c-3.78,7.23-6.7,16.24-3.3,23.48s11.75,10.7,25,10.7h.16c10.71,0,18.69-3.07,23.74-9,9.9-11.76,6.53-31.57,3.26-50.73-2.37-13.93-4.83-28.34-.27-33.73,1.48-1.76,3.9-2.61,7.39-2.61a6.65,6.65,0,0,1,5.71,2.65c6.82,8.87,1.9,35-.58,44.32a4,4,0,0,0,7.74,2.05C234.72,182.22,243.32,148.35,232.9,134.79ZM165,188.46a7.7,7.7,0,0,1-.95-.22l-.26-.07a9.79,9.79,0,0,1-2.21-1l-.22-.15a8.68,8.68,0,0,1-.79-.56l-.24-.2a10.17,10.17,0,0,1-.9-.84,10.77,10.77,0,0,1-.74-.93,3.78,3.78,0,0,1-.22-.33c-.14-.21-.28-.43-.4-.65s-.15-.27-.22-.41-.2-.43-.29-.64l-.18-.43a10.31,10.31,0,0,1-.29-1c0-.16-.07-.33-.1-.49s-.08-.43-.11-.65,0-.31,0-.47a6.77,6.77,0,0,1,0-.9,1.33,1.33,0,0,1,0-.2,8.67,8.67,0,0,1,.12-1.25h0a9.68,9.68,0,0,1,.29-1.27,9.87,9.87,0,0,1,2.8-4.51,10,10,0,0,1,4.91-2.48h.15a10.79,10.79,0,0,1,1.26-.14h0a9.42,9.42,0,0,1,1.19,0h.13c.36,0,.72.09,1.07.15l.14,0a10.05,10.05,0,0,1,2.26.77l.06,0a10.53,10.53,0,0,1,.93.52l.23.15c.24.17.48.35.71.54l.24.19a10.5,10.5,0,0,1,.84.8,8.85,8.85,0,0,1,.77,1l.17.24c.19.29.37.59.54.89l.09.17a10.67,10.67,0,0,1,.5,1.16v0a9,9,0,0,1,.31,1.13l.06.27c.06.33.11.65.14,1l0,.26a11.61,11.61,0,0,1,0,1.18c0,.1,0,.21,0,.32,0,.3-.07.61-.12.91l-.06.34a9,9,0,0,1-.31,1.13,10,10,0,0,1-7.23,6.53,9.6,9.6,0,0,1-1.05.18l-.33,0c-.34,0-.68,0-1,0h-.17a9.4,9.4,0,0,1-1.19-.12Zm1.82-27.81h-.19L90.72,25a12.07,12.07,0,0,1,12.51,6L178,164.53l-.3-.22-.61-.44c-.24-.17-.48-.32-.72-.47s-.46-.29-.69-.42-.47-.25-.71-.37l-.75-.38c-.24-.11-.49-.2-.74-.3q-.67-.27-1.38-.48c-.28-.09-.56-.18-.84-.25l-.78-.17-.83-.15c-.27,0-.55-.08-.82-.11l-.81-.07c-.15,0-.3,0-.45,0h-.72ZM25.28,102.75a12,12,0,0,1-4.91-13l128.57,86.68a1.09,1.09,0,0,0,0,.18,17.83,17.83,0,0,0,0,4.13.15.15,0,0,1,0,.07c.06.44.13.89.22,1.33l0,.14c.09.44.19.88.32,1.31l0,.09a17.8,17.8,0,0,0,1.53,3.67l.14.27Z"/></svg>